<svg xmlns="http://www.w3.org/2000/svg" viewBox="0 0 756 186.4"><defs><style>.cls-1{fill:#fff;}.cls-2{fill:none;stroke:#fff;stroke-miterlimit:10;stroke-width:5px;}</style></defs><title>Asset 3</title><g id="Layer_2" data-name="Layer 2"><g id="Layer_1-2" data-name="Layer 1"><g id="LOGO_MAIN" data-name="LOGO MAIN"><path class="cls-1" d="M68.38,0q7.43,0,10.55,3t3.13,8.93v3.46a10.29,10.29,0,0,1-4.6,9.14q5,2.88,5,9.29v4.17a19.31,19.31,0,0,1-.64,5.19,9.63,9.63,0,0,1-2.13,3.92,9.46,9.46,0,0,1-3.92,2.49,18.5,18.5,0,0,1-6,.86H26.91a1.91,1.91,0,0,1-2.16-2.16V2.16A1.91,1.91,0,0,1,26.91,0ZM35.77,21H65.29q3.6,0,4.89-1.08a3.87,3.87,0,0,0,1.3-3.17V14.26A4,4,0,0,0,70.22,11a6.35,6.35,0,0,0-4.07-1H36.7a.82.82,0,0,0-.93.93Zm0,7.85V39.53a.82.82,0,0,0,.93.93H66.22a6.35,6.35,0,0,0,4.11-1,4.19,4.19,0,0,0,1.22-3.35V33.34A4.24,4.24,0,0,0,70.22,30q-1.34-1.15-4.93-1.15Z"/><path class="cls-1" d="M131.74,0Q140,0,143.62,3.74t3.6,11.09v4.11q0,6.18-2.52,9.79t-8.2,4.61L148.81,48.6a1.12,1.12,0,0,1,.21,1.08c-.09.48-.48.72-1.15.72h-9.29a2.63,2.63,0,0,1-1.29-.22,2.44,2.44,0,0,1-.72-.72l-11.38-15H101.94V48.82a1.4,1.4,0,0,1-1.59,1.58H92.58c-1.11,0-1.66-.53-1.66-1.58V2.16A1.91,1.91,0,0,1,93.08,0Zm-29.8,25.7h27.57c2.45,0,4.18-.52,5.19-1.58a6.79,6.79,0,0,0,1.51-4.82v-3a6.78,6.78,0,0,0-1.51-4.82q-1.51-1.59-5.19-1.59H102.87q-.93,0-.93.87Z"/><path class="cls-1" d="M165.51,0a1.4,1.4,0,0,1,1.59,1.58V48.82a1.4,1.4,0,0,1-1.59,1.58h-7.77c-1.11,0-1.66-.53-1.66-1.58V1.58c0-1,.55-1.58,1.66-1.58Z"/><path class="cls-1" d="M228.73,0a1.4,1.4,0,0,1,1.58,1.58V8.64c0,1.1-.53,1.66-1.58,1.66h-32a19.48,19.48,0,0,0-4.65.46,6,6,0,0,0-2.91,1.59,6.41,6.41,0,0,0-1.55,3,20.09,20.09,0,0,0-.47,4.75V30.31a20.64,20.64,0,0,0,.47,4.79,6.42,6.42,0,0,0,1.55,3A6,6,0,0,0,192,39.71a19.42,19.42,0,0,0,4.65.47h32a1.4,1.4,0,0,1,1.58,1.58v7.06a1.4,1.4,0,0,1-1.58,1.58H196.26a36.93,36.93,0,0,1-9.29-1,14.17,14.17,0,0,1-6.23-3.27,13.23,13.23,0,0,1-3.53-5.91,30.46,30.46,0,0,1-1.11-8.82V19a30.15,30.15,0,0,1,1.11-8.79,13.16,13.16,0,0,1,3.53-5.86A14.44,14.44,0,0,1,187,1a35.91,35.91,0,0,1,9.29-1Z"/><path class="cls-1" d="M247.45,0A1.4,1.4,0,0,1,249,1.58V20.74h10.15c1.15,0,2.11,0,2.88-.11a6.89,6.89,0,0,0,2-.47,5.66,5.66,0,0,0,1.58-1,12.55,12.55,0,0,0,1.51-1.65L279.56.94a2.44,2.44,0,0,1,.72-.72A2.85,2.85,0,0,1,281.65,0h8.92c.63,0,1,.2,1.12.61a1.24,1.24,0,0,1-.18,1.12l-14,18.07a35.57,35.57,0,0,1-2.27,2.81,21.32,21.32,0,0,1-2,2,21.05,21.05,0,0,1,5.47,5.19l14.76,18.72a1.47,1.47,0,0,1,.22,1.11c-.05.51-.43.76-1.15.76H283.3a2.63,2.63,0,0,1-1.29-.22,2.44,2.44,0,0,1-.72-.72L268,32.33a7.74,7.74,0,0,0-3.1-2.56,13.84,13.84,0,0,0-5-.68H249V48.82a1.4,1.4,0,0,1-1.58,1.58h-7.78c-1.1,0-1.66-.53-1.66-1.58V1.58c0-1,.56-1.58,1.66-1.58Z"/><path class="cls-1" d="M367.25,0q7.42,0,10.55,3t3.13,8.93v3.46a10.29,10.29,0,0,1-4.6,9.14q5,2.88,5,9.29v4.17a19.31,19.31,0,0,1-.64,5.19,9.75,9.75,0,0,1-2.13,3.92,9.46,9.46,0,0,1-3.92,2.49,18.54,18.54,0,0,1-6.05.86H325.78a1.91,1.91,0,0,1-2.16-2.16V2.16A1.91,1.91,0,0,1,325.78,0ZM334.64,21h29.52q3.6,0,4.89-1.08a3.87,3.87,0,0,0,1.3-3.17V14.26A4,4,0,0,0,369.09,11a6.35,6.35,0,0,0-4.07-1H335.57a.82.82,0,0,0-.93.93Zm0,7.85V39.53a.82.82,0,0,0,.93.93h29.52a6.35,6.35,0,0,0,4.11-1,4.19,4.19,0,0,0,1.22-3.35V33.34A4.24,4.24,0,0,0,369.09,30q-1.33-1.15-4.93-1.15Z"/><path class="cls-1" d="M394.18,0a2,2,0,0,1,1.73.86l19.22,26L434.5.86A1.94,1.94,0,0,1,436.23,0h9.43a.8.8,0,0,1,.79.47.91.91,0,0,1-.14,1L420.46,35V48.82a1.4,1.4,0,0,1-1.58,1.58H411.1c-1.1,0-1.65-.53-1.65-1.58V35L383.89,1.44a1,1,0,0,1-.18-1,.77.77,0,0,1,.82-.47Z"/><path class="cls-1" d="M519.82,0q7.41,0,10.55,3t3.13,8.93v3.46a10.3,10.3,0,0,1-4.61,9.14q5,2.88,5,9.29v4.17a19.29,19.29,0,0,1-.65,5.19,9.61,9.61,0,0,1-2.12,3.92,9.49,9.49,0,0,1-3.93,2.49,18.44,18.44,0,0,1-6,.86H478.35a1.91,1.91,0,0,1-2.16-2.16V2.16A1.91,1.91,0,0,1,478.35,0ZM487.2,21h29.52c2.4,0,4-.36,4.9-1.08a3.9,3.9,0,0,0,1.3-3.17V14.26A4,4,0,0,0,521.66,11a6.35,6.35,0,0,0-4.07-1H488.14a.83.83,0,0,0-.94.93Zm0,7.85V39.53a.83.83,0,0,0,.94.93h29.52a6.29,6.29,0,0,0,4.1-1A4.17,4.17,0,0,0,523,36.07V33.34A4.27,4.27,0,0,0,521.66,30q-1.33-1.15-4.94-1.15Z"/><path class="cls-1" d="M583.18,0q8.28,0,11.88,3.74t3.6,11.09v4.11q0,6.18-2.52,9.79t-8.21,4.61L600.24,48.6a1.12,1.12,0,0,1,.22,1.08c-.1.48-.48.72-1.15.72H590a2.68,2.68,0,0,1-1.3-.22,2.44,2.44,0,0,1-.72-.72l-11.37-15H553.37V48.82a1.4,1.4,0,0,1-1.58,1.58H544c-1.1,0-1.65-.53-1.65-1.58V2.16A1.91,1.91,0,0,1,544.52,0ZM553.37,25.7H581c2.45,0,4.17-.52,5.18-1.58a6.75,6.75,0,0,0,1.51-4.82v-3a6.73,6.73,0,0,0-1.51-4.82c-1-1.06-2.73-1.59-5.18-1.59H554.31c-.63,0-.94.29-.94.87Z"/><path class="cls-1" d="M617,0a1.4,1.4,0,0,1,1.58,1.58V48.82A1.4,1.4,0,0,1,617,50.4h-7.78c-1.1,0-1.65-.53-1.65-1.58V1.58c0-1,.55-1.58,1.65-1.58Z"/><path class="cls-1" d="M680.16,0a1.4,1.4,0,0,1,1.59,1.58V8.64c0,1.1-.53,1.66-1.59,1.66h-32a19.33,19.33,0,0,0-4.64.46,6,6,0,0,0-2.92,1.59,6.5,6.5,0,0,0-1.55,3,20.15,20.15,0,0,0-.46,4.75V30.31A20.7,20.7,0,0,0,639,35.1a6.51,6.51,0,0,0,1.55,3,6,6,0,0,0,2.92,1.59,19.27,19.27,0,0,0,4.64.47h32a1.4,1.4,0,0,1,1.59,1.58v7.06a1.4,1.4,0,0,1-1.59,1.58H647.69a37,37,0,0,1-9.29-1,14.13,14.13,0,0,1-6.22-3.27,13.23,13.23,0,0,1-3.53-5.91,30.09,30.09,0,0,1-1.12-8.82V19a29.78,29.78,0,0,1,1.12-8.79,13.16,13.16,0,0,1,3.53-5.86A14.4,14.4,0,0,1,638.4,1a36,36,0,0,1,9.29-1Z"/><path class="cls-1" d="M698.88,0a1.4,1.4,0,0,1,1.59,1.58V20.74h10.15c1.15,0,2.11,0,2.88-.11a6.75,6.75,0,0,0,2-.47,5.57,5.57,0,0,0,1.59-1,13.28,13.28,0,0,0,1.51-1.65L731,.94a2.44,2.44,0,0,1,.72-.72A2.87,2.87,0,0,1,733.08,0H742c.62,0,1,.2,1.12.61A1.24,1.24,0,0,1,743,1.73L729,19.8c-.82,1.1-1.57,2-2.27,2.81a22.54,22.54,0,0,1-2.05,2,21.21,21.21,0,0,1,5.47,5.19l14.76,18.72a1.57,1.57,0,0,1,.22,1.11c-.05.51-.44.76-1.16.76h-9.21a2.65,2.65,0,0,1-1.3-.22,2.44,2.44,0,0,1-.72-.72L719.47,32.33a7.78,7.78,0,0,0-3.09-2.56,13.88,13.88,0,0,0-5-.68H700.47V48.82a1.4,1.4,0,0,1-1.59,1.58h-7.77c-1.11,0-1.66-.53-1.66-1.58V1.58c0-1,.55-1.58,1.66-1.58Z"/><path class="cls-1" d="M83.11,130.61a4.15,4.15,0,0,0-1-2,4.34,4.34,0,0,0-2-1,12.85,12.85,0,0,0-3.14-.32H56v11.6a13.33,13.33,0,0,0,.29,3.09,3.88,3.88,0,0,0,1,2,4.07,4.07,0,0,0,2,1,12.21,12.21,0,0,0,3.09.32H77a12.37,12.37,0,0,0,3.14-.32,4.16,4.16,0,0,0,2-1,4,4,0,0,0,1-2,13.91,13.91,0,0,0,.29-3.09v-5.19A14.06,14.06,0,0,0,83.11,130.61Zm0,0a4.15,4.15,0,0,0-1-2,4.34,4.34,0,0,0-2-1,12.85,12.85,0,0,0-3.14-.32H56v11.6a13.33,13.33,0,0,0,.29,3.09,3.88,3.88,0,0,0,1,2,4.07,4.07,0,0,0,2,1,12.21,12.21,0,0,0,3.09.32H77a12.37,12.37,0,0,0,3.14-.32,4.16,4.16,0,0,0,2-1,4,4,0,0,0,1-2,13.91,13.91,0,0,0,.29-3.09v-5.19A14.06,14.06,0,0,0,83.11,130.61Zm0,0a4.15,4.15,0,0,0-1-2,4.34,4.34,0,0,0-2-1,12.85,12.85,0,0,0-3.14-.32H56v11.6a13.33,13.33,0,0,0,.29,3.09,3.88,3.88,0,0,0,1,2,4.07,4.07,0,0,0,2,1,12.21,12.21,0,0,0,3.09.32H77a12.37,12.37,0,0,0,3.14-.32,4.16,4.16,0,0,0,2-1,4,4,0,0,0,1-2,13.91,13.91,0,0,0,.29-3.09v-5.19A14.06,14.06,0,0,0,83.11,130.61Zm152-2.18c-.87-.86-2.57-1.28-5.1-1.28H215.3a13.27,13.27,0,0,0-3.09.29,4.25,4.25,0,0,0-2,1,3.69,3.69,0,0,0-1,1.72,9.62,9.62,0,0,0-.29,2.51v5.59a9.6,9.6,0,0,0,.29,2.54,3.69,3.69,0,0,0,1,1.69,4.45,4.45,0,0,0,2,1,13.84,13.84,0,0,0,3.09.29h21.09V132.8C236.39,130.74,236,129.28,235.08,128.43ZM262,138.75a3.54,3.54,0,0,0-2.53.72,2.88,2.88,0,0,0-.73,2.13v1.23a3.14,3.14,0,0,0,.73,2.3,3.54,3.54,0,0,0,2.53.73h19.64a1.67,1.67,0,0,0,1.31-.44,2.36,2.36,0,0,0,.38-1.55v-5.12Zm0,0a3.54,3.54,0,0,0-2.53.72,2.88,2.88,0,0,0-.73,2.13v1.23a3.14,3.14,0,0,0,.73,2.3,3.54,3.54,0,0,0,2.53.73h19.64a1.67,1.67,0,0,0,1.31-.44,2.36,2.36,0,0,0,.38-1.55v-5.12Zm-26.9-10.32c-.87-.86-2.57-1.28-5.1-1.28H215.3a13.27,13.27,0,0,0-3.09.29,4.25,4.25,0,0,0-2,1,3.69,3.69,0,0,0-1,1.72,9.62,9.62,0,0,0-.29,2.51v5.59a9.6,9.6,0,0,0,.29,2.54,3.69,3.69,0,0,0,1,1.69,4.45,4.45,0,0,0,2,1,13.84,13.84,0,0,0,3.09.29h21.09V132.8C236.39,130.74,236,129.28,235.08,128.43Zm-152,2.18a4.15,4.15,0,0,0-1-2,4.34,4.34,0,0,0-2-1,12.85,12.85,0,0,0-3.14-.32H56v11.6a13.33,13.33,0,0,0,.29,3.09,3.88,3.88,0,0,0,1,2,4.07,4.07,0,0,0,2,1,12.21,12.21,0,0,0,3.09.32H77a12.37,12.37,0,0,0,3.14-.32,4.16,4.16,0,0,0,2-1,4,4,0,0,0,1-2,13.91,13.91,0,0,0,.29-3.09v-5.19A14.06,14.06,0,0,0,83.11,130.61Zm0,0a4.15,4.15,0,0,0-1-2,4.34,4.34,0,0,0-2-1,12.85,12.85,0,0,0-3.14-.32H56v11.6a13.33,13.33,0,0,0,.29,3.09,3.88,3.88,0,0,0,1,2,4.07,4.07,0,0,0,2,1,12.21,12.21,0,0,0,3.09.32H77a12.37,12.37,0,0,0,3.14-.32,4.16,4.16,0,0,0,2-1,4,4,0,0,0,1-2,13.91,13.91,0,0,0,.29-3.09v-5.19A14.06,14.06,0,0,0,83.11,130.61Zm152-2.18c-.87-.86-2.57-1.28-5.1-1.28H215.3a13.27,13.27,0,0,0-3.09.29,4.25,4.25,0,0,0-2,1,3.69,3.69,0,0,0-1,1.72,9.62,9.62,0,0,0-.29,2.51v5.59a9.6,9.6,0,0,0,.29,2.54,3.69,3.69,0,0,0,1,1.69,4.45,4.45,0,0,0,2,1,13.84,13.84,0,0,0,3.09.29h21.09V132.8C236.39,130.74,236,129.28,235.08,128.43ZM262,138.75a3.54,3.54,0,0,0-2.53.72,2.88,2.88,0,0,0-.73,2.13v1.23a3.14,3.14,0,0,0,.73,2.3,3.54,3.54,0,0,0,2.53.73h19.64a1.67,1.67,0,0,0,1.31-.44,2.36,2.36,0,0,0,.38-1.55v-5.12Zm86.79-8.28a4.24,4.24,0,0,0-1-2,3.84,3.84,0,0,0-2-1.05,13.57,13.57,0,0,0-3.14-.29H327.78a13.39,13.39,0,0,0-3.09.29,3.85,3.85,0,0,0-1.95,1.05,4.24,4.24,0,0,0-1,2,13.58,13.58,0,0,0-.29,3V139a14,14,0,0,0,.29,3.09,4.14,4.14,0,0,0,1,2,4.35,4.35,0,0,0,1.95,1,12.69,12.69,0,0,0,3.09.32h14.87a12.85,12.85,0,0,0,3.14-.32,4.34,4.34,0,0,0,2-1,4.14,4.14,0,0,0,1-2,14,14,0,0,0,.29-3.09V133.5A13.58,13.58,0,0,0,348.77,130.47Zm0,0a4.24,4.24,0,0,0-1-2,3.84,3.84,0,0,0-2-1.05,13.57,13.57,0,0,0-3.14-.29H327.78a13.39,13.39,0,0,0-3.09.29,3.85,3.85,0,0,0-1.95,1.05,4.24,4.24,0,0,0-1,2,13.58,13.58,0,0,0-.29,3V139a14,14,0,0,0,.29,3.09,4.14,4.14,0,0,0,1,2,4.35,4.35,0,0,0,1.95,1,12.69,12.69,0,0,0,3.09.32h14.87a12.85,12.85,0,0,0,3.14-.32,4.34,4.34,0,0,0,2-1,4.14,4.14,0,0,0,1-2,14,14,0,0,0,.29-3.09V133.5A13.58,13.58,0,0,0,348.77,130.47ZM262,138.75a3.54,3.54,0,0,0-2.53.72,2.88,2.88,0,0,0-.73,2.13v1.23a3.14,3.14,0,0,0,.73,2.3,3.54,3.54,0,0,0,2.53.73h19.64a1.67,1.67,0,0,0,1.31-.44,2.36,2.36,0,0,0,.38-1.55v-5.12Zm-26.9-10.32c-.87-.86-2.57-1.28-5.1-1.28H215.3a13.27,13.27,0,0,0-3.09.29,4.25,4.25,0,0,0-2,1,3.69,3.69,0,0,0-1,1.72,9.62,9.62,0,0,0-.29,2.51v5.59a9.6,9.6,0,0,0,.29,2.54,3.69,3.69,0,0,0,1,1.69,4.45,4.45,0,0,0,2,1,13.84,13.84,0,0,0,3.09.29h21.09V132.8C236.39,130.74,236,129.28,235.08,128.43Zm-152,2.18a4.15,4.15,0,0,0-1-2,4.34,4.34,0,0,0-2-1,12.85,12.85,0,0,0-3.14-.32H56v11.6a13.33,13.33,0,0,0,.29,3.09,3.88,3.88,0,0,0,1,2,4.07,4.07,0,0,0,2,1,12.21,12.21,0,0,0,3.09.32H77a12.37,12.37,0,0,0,3.14-.32,4.16,4.16,0,0,0,2-1,4,4,0,0,0,1-2,13.91,13.91,0,0,0,.29-3.09v-5.19A14.06,14.06,0,0,0,83.11,130.61Zm0,0a4.15,4.15,0,0,0-1-2,4.34,4.34,0,0,0-2-1,12.85,12.85,0,0,0-3.14-.32H56v11.6a13.33,13.33,0,0,0,.29,3.09,3.88,3.88,0,0,0,1,2,4.07,4.07,0,0,0,2,1,12.21,12.21,0,0,0,3.09.32H77a12.37,12.37,0,0,0,3.14-.32,4.16,4.16,0,0,0,2-1,4,4,0,0,0,1-2,13.91,13.91,0,0,0,.29-3.09v-5.19A14.06,14.06,0,0,0,83.11,130.61Zm152-2.18c-.87-.86-2.57-1.28-5.1-1.28H215.3a13.27,13.27,0,0,0-3.09.29,4.25,4.25,0,0,0-2,1,3.69,3.69,0,0,0-1,1.72,9.62,9.62,0,0,0-.29,2.51v5.59a9.6,9.6,0,0,0,.29,2.54,3.69,3.69,0,0,0,1,1.69,4.45,4.45,0,0,0,2,1,13.84,13.84,0,0,0,3.09.29h21.09V132.8C236.39,130.74,236,129.28,235.08,128.43ZM262,138.75a3.54,3.54,0,0,0-2.53.72,2.88,2.88,0,0,0-.73,2.13v1.23a3.14,3.14,0,0,0,.73,2.3,3.54,3.54,0,0,0,2.53.73h19.64a1.67,1.67,0,0,0,1.31-.44,2.36,2.36,0,0,0,.38-1.55v-5.12Zm86.79-8.28a4.24,4.24,0,0,0-1-2,3.84,3.84,0,0,0-2-1.05,13.57,13.57,0,0,0-3.14-.29H327.78a13.39,13.39,0,0,0-3.09.29,3.85,3.85,0,0,0-1.95,1.05,4.24,4.24,0,0,0-1,2,13.58,13.58,0,0,0-.29,3V139a14,14,0,0,0,.29,3.09,4.14,4.14,0,0,0,1,2,4.35,4.35,0,0,0,1.95,1,12.69,12.69,0,0,0,3.09.32h14.87a12.85,12.85,0,0,0,3.14-.32,4.34,4.34,0,0,0,2-1,4.14,4.14,0,0,0,1-2,14,14,0,0,0,.29-3.09V133.5A13.58,13.58,0,0,0,348.77,130.47Zm0,0a4.24,4.24,0,0,0-1-2,3.84,3.84,0,0,0-2-1.05,13.57,13.57,0,0,0-3.14-.29H327.78a13.39,13.39,0,0,0-3.09.29,3.85,3.85,0,0,0-1.95,1.05,4.24,4.24,0,0,0-1,2,13.58,13.58,0,0,0-.29,3V139a14,14,0,0,0,.29,3.09,4.14,4.14,0,0,0,1,2,4.35,4.35,0,0,0,1.95,1,12.69,12.69,0,0,0,3.09.32h14.87a12.85,12.85,0,0,0,3.14-.32,4.34,4.34,0,0,0,2-1,4.14,4.14,0,0,0,1-2,14,14,0,0,0,.29-3.09V133.5A13.58,13.58,0,0,0,348.77,130.47ZM262,138.75a3.54,3.54,0,0,0-2.53.72,2.88,2.88,0,0,0-.73,2.13v1.23a3.14,3.14,0,0,0,.73,2.3,3.54,3.54,0,0,0,2.53.73h19.64a1.67,1.67,0,0,0,1.31-.44,2.36,2.36,0,0,0,.38-1.55v-5.12Zm-26.9-10.32c-.87-.86-2.57-1.28-5.1-1.28H215.3a13.27,13.27,0,0,0-3.09.29,4.25,4.25,0,0,0-2,1,3.69,3.69,0,0,0-1,1.72,9.62,9.62,0,0,0-.29,2.51v5.59a9.6,9.6,0,0,0,.29,2.54,3.69,3.69,0,0,0,1,1.69,4.45,4.45,0,0,0,2,1,13.84,13.84,0,0,0,3.09.29h21.09V132.8C236.39,130.74,236,129.28,235.08,128.43Zm-152,2.18a4.15,4.15,0,0,0-1-2,4.34,4.34,0,0,0-2-1,12.85,12.85,0,0,0-3.14-.32H56v11.6a13.33,13.33,0,0,0,.29,3.09,3.88,3.88,0,0,0,1,2,4.07,4.07,0,0,0,2,1,12.21,12.21,0,0,0,3.09.32H77a12.37,12.37,0,0,0,3.14-.32,4.16,4.16,0,0,0,2-1,4,4,0,0,0,1-2,13.91,13.91,0,0,0,.29-3.09v-5.19A14.06,14.06,0,0,0,83.11,130.61Zm0,0a4.15,4.15,0,0,0-1-2,4.34,4.34,0,0,0-2-1,12.85,12.85,0,0,0-3.14-.32H56v11.6a13.33,13.33,0,0,0,.29,3.09,3.88,3.88,0,0,0,1,2,4.07,4.07,0,0,0,2,1,12.21,12.21,0,0,0,3.09.32H77a12.37,12.37,0,0,0,3.14-.32,4.16,4.16,0,0,0,2-1,4,4,0,0,0,1-2,13.91,13.91,0,0,0,.29-3.09v-5.19A14.06,14.06,0,0,0,83.11,130.61Zm152-2.18c-.87-.86-2.57-1.28-5.1-1.28H215.3a13.27,13.27,0,0,0-3.09.29,4.25,4.25,0,0,0-2,1,3.69,3.69,0,0,0-1,1.72,9.62,9.62,0,0,0-.29,2.51v5.59a9.6,9.6,0,0,0,.29,2.54,3.69,3.69,0,0,0,1,1.69,4.45,4.45,0,0,0,2,1,13.84,13.84,0,0,0,3.09.29h21.09V132.8C236.39,130.74,236,129.28,235.08,128.43ZM262,138.75a3.54,3.54,0,0,0-2.53.72,2.88,2.88,0,0,0-.73,2.13v1.23a3.14,3.14,0,0,0,.73,2.3,3.54,3.54,0,0,0,2.53.73h19.64a1.67,1.67,0,0,0,1.31-.44,2.36,2.36,0,0,0,.38-1.55v-5.12Zm86.79-8.28a4.24,4.24,0,0,0-1-2,3.84,3.84,0,0,0-2-1.05,13.57,13.57,0,0,0-3.14-.29H327.78a13.39,13.39,0,0,0-3.09.29,3.85,3.85,0,0,0-1.95,1.05,4.24,4.24,0,0,0-1,2,13.58,13.58,0,0,0-.29,3V139a14,14,0,0,0,.29,3.09,4.14,4.14,0,0,0,1,2,4.35,4.35,0,0,0,1.95,1,12.69,12.69,0,0,0,3.09.32h14.87a12.85,12.85,0,0,0,3.14-.32,4.34,4.34,0,0,0,2-1,4.14,4.14,0,0,0,1-2,14,14,0,0,0,.29-3.09V133.5A13.58,13.58,0,0,0,348.77,130.47Zm0,0a4.24,4.24,0,0,0-1-2,3.84,3.84,0,0,0-2-1.05,13.57,13.57,0,0,0-3.14-.29H327.78a13.39,13.39,0,0,0-3.09.29,3.85,3.85,0,0,0-1.95,1.05,4.24,4.24,0,0,0-1,2,13.58,13.58,0,0,0-.29,3V139a14,14,0,0,0,.29,3.09,4.14,4.14,0,0,0,1,2,4.35,4.35,0,0,0,1.95,1,12.69,12.69,0,0,0,3.09.32h14.87a12.85,12.85,0,0,0,3.14-.32,4.34,4.34,0,0,0,2-1,4.14,4.14,0,0,0,1-2,14,14,0,0,0,.29-3.09V133.5A13.58,13.58,0,0,0,348.77,130.47ZM262,138.75a3.54,3.54,0,0,0-2.53.72,2.88,2.88,0,0,0-.73,2.13v1.23a3.14,3.14,0,0,0,.73,2.3,3.54,3.54,0,0,0,2.53.73h19.64a1.67,1.67,0,0,0,1.31-.44,2.36,2.36,0,0,0,.38-1.55v-5.12Zm-26.9-10.32c-.87-.86-2.57-1.28-5.1-1.28H215.3a13.27,13.27,0,0,0-3.09.29,4.25,4.25,0,0,0-2,1,3.69,3.69,0,0,0-1,1.72,9.62,9.62,0,0,0-.29,2.51v5.59a9.6,9.6,0,0,0,.29,2.54,3.69,3.69,0,0,0,1,1.69,4.45,4.45,0,0,0,2,1,13.84,13.84,0,0,0,3.09.29h21.09V132.8C236.39,130.74,236,129.28,235.08,128.43Zm-152,2.18a4.15,4.15,0,0,0-1-2,4.34,4.34,0,0,0-2-1,12.85,12.85,0,0,0-3.14-.32H56v11.6a13.33,13.33,0,0,0,.29,3.09,3.88,3.88,0,0,0,1,2,4.07,4.07,0,0,0,2,1,12.21,12.21,0,0,0,3.09.32H77a12.37,12.37,0,0,0,3.14-.32,4.16,4.16,0,0,0,2-1,4,4,0,0,0,1-2,13.91,13.91,0,0,0,.29-3.09v-5.19A14.06,14.06,0,0,0,83.11,130.61Zm0,0a4.15,4.15,0,0,0-1-2,4.34,4.34,0,0,0-2-1,12.85,12.85,0,0,0-3.14-.32H56v11.6a13.33,13.33,0,0,0,.29,3.09,3.88,3.88,0,0,0,1,2,4.07,4.07,0,0,0,2,1,12.21,12.21,0,0,0,3.09.32H77a12.37,12.37,0,0,0,3.14-.32,4.16,4.16,0,0,0,2-1,4,4,0,0,0,1-2,13.91,13.91,0,0,0,.29-3.09v-5.19A14.06,14.06,0,0,0,83.11,130.61Zm152-2.18c-.87-.86-2.57-1.28-5.1-1.28H215.3a13.27,13.27,0,0,0-3.09.29,4.25,4.25,0,0,0-2,1,3.69,3.69,0,0,0-1,1.72,9.62,9.62,0,0,0-.29,2.51v5.59a9.6,9.6,0,0,0,.29,2.54,3.69,3.69,0,0,0,1,1.69,4.45,4.45,0,0,0,2,1,13.84,13.84,0,0,0,3.09.29h21.09V132.8C236.39,130.74,236,129.28,235.08,128.43ZM262,138.75a3.54,3.54,0,0,0-2.53.72,2.88,2.88,0,0,0-.73,2.13v1.23a3.14,3.14,0,0,0,.73,2.3,3.54,3.54,0,0,0,2.53.73h19.64a1.67,1.67,0,0,0,1.31-.44,2.36,2.36,0,0,0,.38-1.55v-5.12Zm86.79-8.28a4.24,4.24,0,0,0-1-2,3.84,3.84,0,0,0-2-1.05,13.57,13.57,0,0,0-3.14-.29H327.78a13.39,13.39,0,0,0-3.09.29,3.85,3.85,0,0,0-1.95,1.05,4.24,4.24,0,0,0-1,2,13.58,13.58,0,0,0-.29,3V139a14,14,0,0,0,.29,3.09,4.14,4.14,0,0,0,1,2,4.35,4.35,0,0,0,1.95,1,12.69,12.69,0,0,0,3.09.32h14.87a12.85,12.85,0,0,0,3.14-.32,4.34,4.34,0,0,0,2-1,4.14,4.14,0,0,0,1-2,14,14,0,0,0,.29-3.09V133.5A13.58,13.58,0,0,0,348.77,130.47Zm0,0a4.24,4.24,0,0,0-1-2,3.84,3.84,0,0,0-2-1.05,13.57,13.57,0,0,0-3.14-.29H327.78a13.39,13.39,0,0,0-3.09.29,3.85,3.85,0,0,0-1.95,1.05,4.24,4.24,0,0,0-1,2,13.58,13.58,0,0,0-.29,3V139a14,14,0,0,0,.29,3.09,4.14,4.14,0,0,0,1,2,4.35,4.35,0,0,0,1.95,1,12.69,12.69,0,0,0,3.09.32h14.87a12.85,12.85,0,0,0,3.14-.32,4.34,4.34,0,0,0,2-1,4.14,4.14,0,0,0,1-2,14,14,0,0,0,.29-3.09V133.5A13.58,13.58,0,0,0,348.77,130.47ZM262,138.75a3.54,3.54,0,0,0-2.53.72,2.88,2.88,0,0,0-.73,2.13v1.23a3.14,3.14,0,0,0,.73,2.3,3.54,3.54,0,0,0,2.53.73h19.64a1.67,1.67,0,0,0,1.31-.44,2.36,2.36,0,0,0,.38-1.55v-5.12Zm-26.9-10.32c-.87-.86-2.57-1.28-5.1-1.28H215.3a13.27,13.27,0,0,0-3.09.29,4.25,4.25,0,0,0-2,1,3.69,3.69,0,0,0-1,1.72,9.62,9.62,0,0,0-.29,2.51v5.59a9.6,9.6,0,0,0,.29,2.54,3.69,3.69,0,0,0,1,1.69,4.45,4.45,0,0,0,2,1,13.84,13.84,0,0,0,3.09.29h21.09V132.8C236.39,130.74,236,129.28,235.08,128.43Zm-152,2.18a4.15,4.15,0,0,0-1-2,4.34,4.34,0,0,0-2-1,12.85,12.85,0,0,0-3.14-.32H56v11.6a13.33,13.33,0,0,0,.29,3.09,3.88,3.88,0,0,0,1,2,4.07,4.07,0,0,0,2,1,12.21,12.21,0,0,0,3.09.32H77a12.37,12.37,0,0,0,3.14-.32,4.16,4.16,0,0,0,2-1,4,4,0,0,0,1-2,13.91,13.91,0,0,0,.29-3.09v-5.19A14.06,14.06,0,0,0,83.11,130.61Zm0,0a4.15,4.15,0,0,0-1-2,4.34,4.34,0,0,0-2-1,12.85,12.85,0,0,0-3.14-.32H56v11.6a13.33,13.33,0,0,0,.29,3.09,3.88,3.88,0,0,0,1,2,4.07,4.07,0,0,0,2,1,12.21,12.21,0,0,0,3.09.32H77a12.37,12.37,0,0,0,3.14-.32,4.16,4.16,0,0,0,2-1,4,4,0,0,0,1-2,13.91,13.91,0,0,0,.29-3.09v-5.19A14.06,14.06,0,0,0,83.11,130.61Zm152-2.18c-.87-.86-2.57-1.28-5.1-1.28H215.3a13.27,13.27,0,0,0-3.09.29,4.25,4.25,0,0,0-2,1,3.69,3.69,0,0,0-1,1.72,9.62,9.62,0,0,0-.29,2.51v5.59a9.6,9.6,0,0,0,.29,2.54,3.69,3.69,0,0,0,1,1.69,4.45,4.45,0,0,0,2,1,13.84,13.84,0,0,0,3.09.29h21.09V132.8C236.39,130.74,236,129.28,235.08,128.43ZM262,138.75a3.54,3.54,0,0,0-2.53.72,2.88,2.88,0,0,0-.73,2.13v1.23a3.14,3.14,0,0,0,.73,2.3,3.54,3.54,0,0,0,2.53.73h19.64a1.67,1.67,0,0,0,1.31-.44,2.36,2.36,0,0,0,.38-1.55v-5.12Zm86.79-8.28a4.24,4.24,0,0,0-1-2,3.84,3.84,0,0,0-2-1.05,13.57,13.57,0,0,0-3.14-.29H327.78a13.39,13.39,0,0,0-3.09.29,3.85,3.85,0,0,0-1.95,1.05,4.24,4.24,0,0,0-1,2,13.58,13.58,0,0,0-.29,3V139a14,14,0,0,0,.29,3.09,4.14,4.14,0,0,0,1,2,4.35,4.35,0,0,0,1.95,1,12.69,12.69,0,0,0,3.09.32h14.87a12.85,12.85,0,0,0,3.14-.32,4.34,4.34,0,0,0,2-1,4.14,4.14,0,0,0,1-2,14,14,0,0,0,.29-3.09V133.5A13.58,13.58,0,0,0,348.77,130.47Zm0,0a4.24,4.24,0,0,0-1-2,3.84,3.84,0,0,0-2-1.05,13.57,13.57,0,0,0-3.14-.29H327.78a13.39,13.39,0,0,0-3.09.29,3.85,3.85,0,0,0-1.95,1.05,4.24,4.24,0,0,0-1,2,13.58,13.58,0,0,0-.29,3V139a14,14,0,0,0,.29,3.09,4.14,4.14,0,0,0,1,2,4.35,4.35,0,0,0,1.95,1,12.69,12.69,0,0,0,3.09.32h14.87a12.85,12.85,0,0,0,3.14-.32,4.34,4.34,0,0,0,2-1,4.14,4.14,0,0,0,1-2,14,14,0,0,0,.29-3.09V133.5A13.58,13.58,0,0,0,348.77,130.47ZM262,138.75a3.54,3.54,0,0,0-2.53.72,2.88,2.88,0,0,0-.73,2.13v1.23a3.14,3.14,0,0,0,.73,2.3,3.54,3.54,0,0,0,2.53.73h19.64a1.67,1.67,0,0,0,1.31-.44,2.36,2.36,0,0,0,.38-1.55v-5.12Zm-26.9-10.32c-.87-.86-2.57-1.28-5.1-1.28H215.3a13.27,13.27,0,0,0-3.09.29,4.25,4.25,0,0,0-2,1,3.69,3.69,0,0,0-1,1.72,9.62,9.62,0,0,0-.29,2.51v5.59a9.6,9.6,0,0,0,.29,2.54,3.69,3.69,0,0,0,1,1.69,4.45,4.45,0,0,0,2,1,13.84,13.84,0,0,0,3.09.29h21.09V132.8C236.39,130.74,236,129.28,235.08,128.43Zm-152,2.18a4.15,4.15,0,0,0-1-2,4.34,4.34,0,0,0-2-1,12.85,12.85,0,0,0-3.14-.32H56v11.6a13.33,13.33,0,0,0,.29,3.09,3.88,3.88,0,0,0,1,2,4.07,4.07,0,0,0,2,1,12.21,12.21,0,0,0,3.09.32H77a12.37,12.37,0,0,0,3.14-.32,4.16,4.16,0,0,0,2-1,4,4,0,0,0,1-2,13.91,13.91,0,0,0,.29-3.09v-5.19A14.06,14.06,0,0,0,83.11,130.61Zm0,0a4.15,4.15,0,0,0-1-2,4.34,4.34,0,0,0-2-1,12.85,12.85,0,0,0-3.14-.32H56v11.6a13.33,13.33,0,0,0,.29,3.09,3.88,3.88,0,0,0,1,2,4.07,4.07,0,0,0,2,1,12.21,12.21,0,0,0,3.09.32H77a12.37,12.37,0,0,0,3.14-.32,4.16,4.16,0,0,0,2-1,4,4,0,0,0,1-2,13.91,13.91,0,0,0,.29-3.09v-5.19A14.06,14.06,0,0,0,83.11,130.61Zm152-2.18c-.87-.86-2.57-1.28-5.1-1.28H215.3a13.27,13.27,0,0,0-3.09.29,4.25,4.25,0,0,0-2,1,3.69,3.69,0,0,0-1,1.72,9.62,9.62,0,0,0-.29,2.51v5.59a9.6,9.6,0,0,0,.29,2.54,3.69,3.69,0,0,0,1,1.69,4.45,4.45,0,0,0,2,1,13.84,13.84,0,0,0,3.09.29h21.09V132.8C236.39,130.74,236,129.28,235.08,128.43ZM262,138.75a3.54,3.54,0,0,0-2.53.72,2.88,2.88,0,0,0-.73,2.13v1.23a3.14,3.14,0,0,0,.73,2.3,3.54,3.54,0,0,0,2.53.73h19.64a1.67,1.67,0,0,0,1.31-.44,2.36,2.36,0,0,0,.38-1.55v-5.12Zm86.79-8.28a4.24,4.24,0,0,0-1-2,3.84,3.84,0,0,0-2-1.05,13.57,13.57,0,0,0-3.14-.29H327.78a13.39,13.39,0,0,0-3.09.29,3.85,3.85,0,0,0-1.95,1.05,4.24,4.24,0,0,0-1,2,13.58,13.58,0,0,0-.29,3V139a14,14,0,0,0,.29,3.09,4.14,4.14,0,0,0,1,2,4.35,4.35,0,0,0,1.95,1,12.69,12.69,0,0,0,3.09.32h14.87a12.85,12.85,0,0,0,3.14-.32,4.34,4.34,0,0,0,2-1,4.14,4.14,0,0,0,1-2,14,14,0,0,0,.29-3.09V133.5A13.58,13.58,0,0,0,348.77,130.47Zm0,0a4.24,4.24,0,0,0-1-2,3.84,3.84,0,0,0-2-1.05,13.57,13.57,0,0,0-3.14-.29H327.78a13.39,13.39,0,0,0-3.09.29,3.85,3.85,0,0,0-1.95,1.05,4.24,4.24,0,0,0-1,2,13.58,13.58,0,0,0-.29,3V139a14,14,0,0,0,.29,3.09,4.14,4.14,0,0,0,1,2,4.35,4.35,0,0,0,1.95,1,12.69,12.69,0,0,0,3.09.32h14.87a12.85,12.85,0,0,0,3.14-.32,4.34,4.34,0,0,0,2-1,4.14,4.14,0,0,0,1-2,14,14,0,0,0,.29-3.09V133.5A13.58,13.58,0,0,0,348.77,130.47ZM262,138.75a3.54,3.54,0,0,0-2.53.72,2.88,2.88,0,0,0-.73,2.13v1.23a3.14,3.14,0,0,0,.73,2.3,3.54,3.54,0,0,0,2.53.73h19.64a1.67,1.67,0,0,0,1.31-.44,2.36,2.36,0,0,0,.38-1.55v-5.12Zm-26.9-10.32c-.87-.86-2.57-1.28-5.1-1.28H215.3a13.27,13.27,0,0,0-3.09.29,4.25,4.25,0,0,0-2,1,3.69,3.69,0,0,0-1,1.72,9.62,9.62,0,0,0-.29,2.51v5.59a9.6,9.6,0,0,0,.29,2.54,3.69,3.69,0,0,0,1,1.69,4.45,4.45,0,0,0,2,1,13.84,13.84,0,0,0,3.09.29h21.09V132.8C236.39,130.74,236,129.28,235.08,128.43Zm-152,2.18a4.15,4.15,0,0,0-1-2,4.34,4.34,0,0,0-2-1,12.85,12.85,0,0,0-3.14-.32H56v11.6a13.33,13.33,0,0,0,.29,3.09,3.88,3.88,0,0,0,1,2,4.07,4.07,0,0,0,2,1,12.21,12.21,0,0,0,3.09.32H77a12.37,12.37,0,0,0,3.14-.32,4.16,4.16,0,0,0,2-1,4,4,0,0,0,1-2,13.91,13.91,0,0,0,.29-3.09v-5.19A14.06,14.06,0,0,0,83.11,130.61Zm0,0a4.15,4.15,0,0,0-1-2,4.34,4.34,0,0,0-2-1,12.85,12.85,0,0,0-3.14-.32H56v11.6a13.33,13.33,0,0,0,.29,3.09,3.88,3.88,0,0,0,1,2,4.07,4.07,0,0,0,2,1,12.21,12.21,0,0,0,3.09.32H77a12.37,12.37,0,0,0,3.14-.32,4.16,4.16,0,0,0,2-1,4,4,0,0,0,1-2,13.91,13.91,0,0,0,.29-3.09v-5.19A14.06,14.06,0,0,0,83.11,130.61Zm152-2.18c-.87-.86-2.57-1.28-5.1-1.28H215.3a13.27,13.27,0,0,0-3.09.29,4.25,4.25,0,0,0-2,1,3.69,3.69,0,0,0-1,1.72,9.62,9.62,0,0,0-.29,2.51v5.59a9.6,9.6,0,0,0,.29,2.54,3.69,3.69,0,0,0,1,1.69,4.45,4.45,0,0,0,2,1,13.84,13.84,0,0,0,3.09.29h21.09V132.8C236.39,130.74,236,129.28,235.08,128.43ZM262,138.75a3.54,3.54,0,0,0-2.53.72,2.88,2.88,0,0,0-.73,2.13v1.23a3.14,3.14,0,0,0,.73,2.3,3.54,3.54,0,0,0,2.53.73h19.64a1.67,1.67,0,0,0,1.31-.44,2.36,2.36,0,0,0,.38-1.55v-5.12Zm86.79-8.28a4.24,4.24,0,0,0-1-2,3.84,3.84,0,0,0-2-1.05,13.57,13.57,0,0,0-3.14-.29H327.78a13.39,13.39,0,0,0-3.09.29,3.85,3.85,0,0,0-1.95,1.05,4.24,4.24,0,0,0-1,2,13.58,13.58,0,0,0-.29,3V139a14,14,0,0,0,.29,3.09,4.14,4.14,0,0,0,1,2,4.35,4.35,0,0,0,1.95,1,12.69,12.69,0,0,0,3.09.32h14.87a12.85,12.85,0,0,0,3.14-.32,4.34,4.34,0,0,0,2-1,4.14,4.14,0,0,0,1-2,14,14,0,0,0,.29-3.09V133.5A13.58,13.58,0,0,0,348.77,130.47Zm0,0a4.24,4.24,0,0,0-1-2,3.84,3.84,0,0,0-2-1.05,13.57,13.57,0,0,0-3.14-.29H327.78a13.39,13.39,0,0,0-3.09.29,3.85,3.85,0,0,0-1.95,1.05,4.24,4.24,0,0,0-1,2,13.58,13.58,0,0,0-.29,3V139a14,14,0,0,0,.29,3.09,4.14,4.14,0,0,0,1,2,4.35,4.35,0,0,0,1.95,1,12.69,12.69,0,0,0,3.09.32h14.87a12.85,12.85,0,0,0,3.14-.32,4.34,4.34,0,0,0,2-1,4.14,4.14,0,0,0,1-2,14,14,0,0,0,.29-3.09V133.5A13.58,13.58,0,0,0,348.77,130.47ZM262,138.75a3.54,3.54,0,0,0-2.53.72,2.88,2.88,0,0,0-.73,2.13v1.23a3.14,3.14,0,0,0,.73,2.3,3.54,3.54,0,0,0,2.53.73h19.64a1.67,1.67,0,0,0,1.31-.44,2.36,2.36,0,0,0,.38-1.55v-5.12Zm-26.9-10.32c-.87-.86-2.57-1.28-5.1-1.28H215.3a13.27,13.27,0,0,0-3.09.29,4.25,4.25,0,0,0-2,1,3.69,3.69,0,0,0-1,1.72,9.62,9.62,0,0,0-.29,2.51v5.59a9.6,9.6,0,0,0,.29,2.54,3.69,3.69,0,0,0,1,1.69,4.45,4.45,0,0,0,2,1,13.84,13.84,0,0,0,3.09.29h21.09V132.8C236.39,130.74,236,129.28,235.08,128.43Zm-152,2.18a4.15,4.15,0,0,0-1-2,4.34,4.34,0,0,0-2-1,12.85,12.85,0,0,0-3.14-.32H56v11.6a13.33,13.33,0,0,0,.29,3.09,3.88,3.88,0,0,0,1,2,4.07,4.07,0,0,0,2,1,12.21,12.21,0,0,0,3.09.32H77a12.37,12.37,0,0,0,3.14-.32,4.16,4.16,0,0,0,2-1,4,4,0,0,0,1-2,13.91,13.91,0,0,0,.29-3.09v-5.19A14.06,14.06,0,0,0,83.11,130.61ZM724,82.4H32a32,32,0,0,0-32,32v40a32,32,0,0,0,32,32H724a32,32,0,0,0,32-32v-40A32,32,0,0,0,724,82.4ZM586.78,123h40.06V141.8H586.78Zm-85.57,0h40.06V141.8H501.21Zm-42.39,0h40.05V141.8H458.82ZM91.67,140.49a18.56,18.56,0,0,1-.69,5.4,8,8,0,0,1-2.31,3.67,9.74,9.74,0,0,1-4.28,2.07,29.25,29.25,0,0,1-6.59.64H61.48a29.13,29.13,0,0,1-6.61-.64,9.77,9.77,0,0,1-4.26-2.07,8,8,0,0,1-2.3-3.67,18.2,18.2,0,0,1-.7-5.4V109.84c0-.86.45-1.29,1.34-1.29h5.71A1.14,1.14,0,0,1,56,109.84v10.43H77.8a27.45,27.45,0,0,1,6.59.67,10,10,0,0,1,4.28,2.1A8,8,0,0,1,91,126.71a18.48,18.48,0,0,1,.69,5.39Zm50.71,0a18.2,18.2,0,0,1-.7,5.4,7.93,7.93,0,0,1-2.3,3.67,9.8,9.8,0,0,1-4.28,2.07,29.31,29.31,0,0,1-6.59.64H112.25a29.23,29.23,0,0,1-6.62-.64,9.79,9.79,0,0,1-4.25-2.07,7.93,7.93,0,0,1-2.3-3.67,18.2,18.2,0,0,1-.7-5.4V121.61a1.18,1.18,0,0,1,1.34-1.34h5.71c.85,0,1.28.45,1.28,1.34v16.84a16.4,16.4,0,0,0,.24,3.09,4,4,0,0,0,.87,2,3.62,3.62,0,0,0,1.81,1,11.69,11.69,0,0,0,3.09.32h15a12.4,12.4,0,0,0,3.15-.32,4.15,4.15,0,0,0,1.95-1,4,4,0,0,0,1-2,13.21,13.21,0,0,0,.3-3.09V121.61c0-.89.42-1.34,1.28-1.34h5.71c.85,0,1.28.45,1.28,1.34ZM193.91,151a1.14,1.14,0,0,1-1.29,1.29h-5.71a1.14,1.14,0,0,1-1.28-1.29v-16.9a17.68,17.68,0,0,0-.23-3.06,4,4,0,0,0-.91-2,3.87,3.87,0,0,0-1.83-1,11.94,11.94,0,0,0-3-.32H164.12A12.69,12.69,0,0,0,161,128a4.35,4.35,0,0,0-1.95,1,4,4,0,0,0-1,2,14.06,14.06,0,0,0-.29,3.06V151a1.14,1.14,0,0,1-1.28,1.29h-5.72c-.89,0-1.34-.43-1.34-1.29V132.1a18.46,18.46,0,0,1,.7-5.39,8,8,0,0,1,2.31-3.67,9.92,9.92,0,0,1,4.25-2.1,27.38,27.38,0,0,1,6.62-.67H180a27.45,27.45,0,0,1,6.59.67,10,10,0,0,1,4.28,2.1,8,8,0,0,1,2.31,3.67,18.46,18.46,0,0,1,.7,5.39Zm50.76,2.28a19.18,19.18,0,0,1-.67,5.45,7.69,7.69,0,0,1-2.3,3.67,10.27,10.27,0,0,1-4.29,2.1,27.8,27.8,0,0,1-6.61.67H203.35a.93.93,0,0,1-1-1.05v-4.9a.93.93,0,0,1,1-1H230a12.46,12.46,0,0,0,3.15-.32,4.07,4.07,0,0,0,2-1.05,3.9,3.9,0,0,0,1-2,13.67,13.67,0,0,0,.29-3.12v-1.51H214.48a27.43,27.43,0,0,1-6.62-.67,10,10,0,0,1-4.25-2.1,7.93,7.93,0,0,1-2.3-3.67,18.37,18.37,0,0,1-.7-5.45v-6.12a18.37,18.37,0,0,1,.7-5.45,7.88,7.88,0,0,1,2.3-3.67,10,10,0,0,1,4.25-2.1,27.43,27.43,0,0,1,6.62-.67H230.8a27.29,27.29,0,0,1,6.61.67A10.49,10.49,0,0,1,241.7,123a7.51,7.51,0,0,1,2.3,3.64,18.88,18.88,0,0,1,.67,5.39Zm47-5.66a10.51,10.51,0,0,1-.21,2.31,2.92,2.92,0,0,1-.7,1.42,2.56,2.56,0,0,1-1.31.73,8.57,8.57,0,0,1-2.09.21H259.59a15.66,15.66,0,0,1-4.28-.5,6.61,6.61,0,0,1-2.77-1.48,5.44,5.44,0,0,1-1.49-2.57,14.11,14.11,0,0,1-.43-3.73v-2.8a11.08,11.08,0,0,1,.43-3.23,5.47,5.47,0,0,1,1.49-2.42,6.62,6.62,0,0,1,2.77-1.49,15.69,15.69,0,0,1,4.28-.49h23.72v-1.11a8.36,8.36,0,0,0-.29-2.39,3.26,3.26,0,0,0-1-1.6,4.52,4.52,0,0,0-1.92-.91,14.3,14.3,0,0,0-3.15-.29H252.6a.93.93,0,0,1-1-1.05v-4.89a.93.93,0,0,1,1-1h25.18a27.42,27.42,0,0,1,6.58.67,10,10,0,0,1,4.29,2.1,8,8,0,0,1,2.3,3.67,18.13,18.13,0,0,1,.7,5.39ZM306.22,151a1.14,1.14,0,0,1-1.28,1.29h-5.72a1.14,1.14,0,0,1-1.28-1.29V109.84a1.14,1.14,0,0,1,1.28-1.29h5.72a1.14,1.14,0,0,1,1.28,1.29Zm51.11-10.49a18.2,18.2,0,0,1-.7,5.4,7.93,7.93,0,0,1-2.3,3.67,9.74,9.74,0,0,1-4.28,2.07,29.31,29.31,0,0,1-6.59.64H327a29.16,29.16,0,0,1-6.62-.64,9.73,9.73,0,0,1-4.25-2.07,7.93,7.93,0,0,1-2.3-3.67,18.2,18.2,0,0,1-.7-5.4V132.1a18.13,18.13,0,0,1,.7-5.39,7.88,7.88,0,0,1,2.3-3.67,10,10,0,0,1,4.25-2.1,27.38,27.38,0,0,1,6.62-.67h16.49a27.51,27.51,0,0,1,6.59.67,10,10,0,0,1,4.28,2.1,7.88,7.88,0,0,1,2.3,3.67,18.13,18.13,0,0,1,.7,5.39ZM477.38,163.8H437.32V145h40.06Zm42.49,0H479.81V145h40.06Zm42.39,0H522.2V145h40.06Zm43.08,0H565.29V145h40.05Zm84.07-25.15L690,145h.23V163.8H650.16v-8.5l-2.33,1.13v7.37H607.77V145h35.3l2.58-3.22H629.17V124l-5.47-3.55H607.47V101.62h40.06v17.59l15.47.26,22.74-30.79L688,121l43.41,2.64ZM347.75,128.49a3.84,3.84,0,0,0-2-1.05,13.57,13.57,0,0,0-3.14-.29H327.78a13.39,13.39,0,0,0-3.09.29,3.85,3.85,0,0,0-1.95,1.05,4.24,4.24,0,0,0-1,2,13.58,13.58,0,0,0-.29,3V139a14,14,0,0,0,.29,3.09,4.14,4.14,0,0,0,1,2,4.35,4.35,0,0,0,1.95,1,12.69,12.69,0,0,0,3.09.32h14.87a12.85,12.85,0,0,0,3.14-.32,4.34,4.34,0,0,0,2-1,4.14,4.14,0,0,0,1-2,14,14,0,0,0,.29-3.09V133.5a13.58,13.58,0,0,0-.29-3A4.24,4.24,0,0,0,347.75,128.49Zm-88.3,11a2.88,2.88,0,0,0-.73,2.13v1.23a3.14,3.14,0,0,0,.73,2.3,3.54,3.54,0,0,0,2.53.73h19.64a1.67,1.67,0,0,0,1.31-.44,2.36,2.36,0,0,0,.38-1.55v-5.12H262A3.54,3.54,0,0,0,259.45,139.47ZM230,127.15H215.3a13.27,13.27,0,0,0-3.09.29,4.25,4.25,0,0,0-2,1,3.69,3.69,0,0,0-1,1.72,9.62,9.62,0,0,0-.29,2.51v5.59a9.6,9.6,0,0,0,.29,2.54,3.69,3.69,0,0,0,1,1.69,4.45,4.45,0,0,0,2,1,13.84,13.84,0,0,0,3.09.29h21.09V132.8c0-2.06-.43-3.52-1.31-4.37S232.51,127.15,230,127.15ZM82.09,128.63a4.34,4.34,0,0,0-2-1,12.85,12.85,0,0,0-3.14-.32H56v11.6a13.33,13.33,0,0,0,.29,3.09,3.88,3.88,0,0,0,1,2,4.07,4.07,0,0,0,2,1,12.21,12.21,0,0,0,3.09.32H77a12.37,12.37,0,0,0,3.14-.32,4.16,4.16,0,0,0,2-1,4,4,0,0,0,1-2,13.91,13.91,0,0,0,.29-3.09v-5.19a14.06,14.06,0,0,0-.29-3.06A4.15,4.15,0,0,0,82.09,128.63Zm1,2a4.15,4.15,0,0,0-1-2,4.34,4.34,0,0,0-2-1,12.85,12.85,0,0,0-3.14-.32H56v11.6a13.33,13.33,0,0,0,.29,3.09,3.88,3.88,0,0,0,1,2,4.07,4.07,0,0,0,2,1,12.21,12.21,0,0,0,3.09.32H77a12.37,12.37,0,0,0,3.14-.32,4.16,4.16,0,0,0,2-1,4,4,0,0,0,1-2,13.91,13.91,0,0,0,.29-3.09v-5.19A14.06,14.06,0,0,0,83.11,130.61Zm152-2.18c-.87-.86-2.57-1.28-5.1-1.28H215.3a13.27,13.27,0,0,0-3.09.29,4.25,4.25,0,0,0-2,1,3.69,3.69,0,0,0-1,1.72,9.62,9.62,0,0,0-.29,2.51v5.59a9.6,9.6,0,0,0,.29,2.54,3.69,3.69,0,0,0,1,1.69,4.45,4.45,0,0,0,2,1,13.84,13.84,0,0,0,3.09.29h21.09V132.8C236.39,130.74,236,129.28,235.08,128.43ZM262,138.75a3.54,3.54,0,0,0-2.53.72,2.88,2.88,0,0,0-.73,2.13v1.23a3.14,3.14,0,0,0,.73,2.3,3.54,3.54,0,0,0,2.53.73h19.64a1.67,1.67,0,0,0,1.31-.44,2.36,2.36,0,0,0,.38-1.55v-5.12Zm86.79-8.28a4.24,4.24,0,0,0-1-2,3.84,3.84,0,0,0-2-1.05,13.57,13.57,0,0,0-3.14-.29H327.78a13.39,13.39,0,0,0-3.09.29,3.85,3.85,0,0,0-1.95,1.05,4.24,4.24,0,0,0-1,2,13.58,13.58,0,0,0-.29,3V139a14,14,0,0,0,.29,3.09,4.14,4.14,0,0,0,1,2,4.35,4.35,0,0,0,1.95,1,12.69,12.69,0,0,0,3.09.32h14.87a12.85,12.85,0,0,0,3.14-.32,4.34,4.34,0,0,0,2-1,4.14,4.14,0,0,0,1-2,14,14,0,0,0,.29-3.09V133.5A13.58,13.58,0,0,0,348.77,130.47Zm0,0a4.24,4.24,0,0,0-1-2,3.84,3.84,0,0,0-2-1.05,13.57,13.57,0,0,0-3.14-.29H327.78a13.39,13.39,0,0,0-3.09.29,3.85,3.85,0,0,0-1.95,1.05,4.24,4.24,0,0,0-1,2,13.58,13.58,0,0,0-.29,3V139a14,14,0,0,0,.29,3.09,4.14,4.14,0,0,0,1,2,4.35,4.35,0,0,0,1.95,1,12.69,12.69,0,0,0,3.09.32h14.87a12.85,12.85,0,0,0,3.14-.32,4.34,4.34,0,0,0,2-1,4.14,4.14,0,0,0,1-2,14,14,0,0,0,.29-3.09V133.5A13.58,13.58,0,0,0,348.77,130.47ZM262,138.75a3.54,3.54,0,0,0-2.53.72,2.88,2.88,0,0,0-.73,2.13v1.23a3.14,3.14,0,0,0,.73,2.3,3.54,3.54,0,0,0,2.53.73h19.64a1.67,1.67,0,0,0,1.31-.44,2.36,2.36,0,0,0,.38-1.55v-5.12Zm-26.9-10.32c-.87-.86-2.57-1.28-5.1-1.28H215.3a13.27,13.27,0,0,0-3.09.29,4.25,4.25,0,0,0-2,1,3.69,3.69,0,0,0-1,1.72,9.62,9.62,0,0,0-.29,2.51v5.59a9.6,9.6,0,0,0,.29,2.54,3.69,3.69,0,0,0,1,1.69,4.45,4.45,0,0,0,2,1,13.84,13.84,0,0,0,3.09.29h21.09V132.8C236.39,130.74,236,129.28,235.08,128.43Zm-152,2.18a4.15,4.15,0,0,0-1-2,4.34,4.34,0,0,0-2-1,12.85,12.85,0,0,0-3.14-.32H56v11.6a13.33,13.33,0,0,0,.29,3.09,3.88,3.88,0,0,0,1,2,4.07,4.07,0,0,0,2,1,12.21,12.21,0,0,0,3.09.32H77a12.37,12.37,0,0,0,3.14-.32,4.16,4.16,0,0,0,2-1,4,4,0,0,0,1-2,13.91,13.91,0,0,0,.29-3.09v-5.19A14.06,14.06,0,0,0,83.11,130.61Zm0,0a4.15,4.15,0,0,0-1-2,4.34,4.34,0,0,0-2-1,12.85,12.85,0,0,0-3.14-.32H56v11.6a13.33,13.33,0,0,0,.29,3.09,3.88,3.88,0,0,0,1,2,4.07,4.07,0,0,0,2,1,12.21,12.21,0,0,0,3.09.32H77a12.37,12.37,0,0,0,3.14-.32,4.16,4.16,0,0,0,2-1,4,4,0,0,0,1-2,13.91,13.91,0,0,0,.29-3.09v-5.19A14.06,14.06,0,0,0,83.11,130.61Zm152-2.18c-.87-.86-2.57-1.28-5.1-1.28H215.3a13.27,13.27,0,0,0-3.09.29,4.25,4.25,0,0,0-2,1,3.69,3.69,0,0,0-1,1.72,9.62,9.62,0,0,0-.29,2.51v5.59a9.6,9.6,0,0,0,.29,2.54,3.69,3.69,0,0,0,1,1.69,4.45,4.45,0,0,0,2,1,13.84,13.84,0,0,0,3.09.29h21.09V132.8C236.39,130.74,236,129.28,235.08,128.43ZM262,138.75a3.54,3.54,0,0,0-2.53.72,2.88,2.88,0,0,0-.73,2.13v1.23a3.14,3.14,0,0,0,.73,2.3,3.54,3.54,0,0,0,2.53.73h19.64a1.67,1.67,0,0,0,1.31-.44,2.36,2.36,0,0,0,.38-1.55v-5.12Zm86.79-8.28a4.24,4.24,0,0,0-1-2,3.84,3.84,0,0,0-2-1.05,13.57,13.57,0,0,0-3.14-.29H327.78a13.39,13.39,0,0,0-3.09.29,3.85,3.85,0,0,0-1.95,1.05,4.24,4.24,0,0,0-1,2,13.58,13.58,0,0,0-.29,3V139a14,14,0,0,0,.29,3.09,4.14,4.14,0,0,0,1,2,4.35,4.35,0,0,0,1.95,1,12.69,12.69,0,0,0,3.09.32h14.87a12.85,12.85,0,0,0,3.14-.32,4.34,4.34,0,0,0,2-1,4.14,4.14,0,0,0,1-2,14,14,0,0,0,.29-3.09V133.5A13.58,13.58,0,0,0,348.77,130.47Zm0,0a4.24,4.24,0,0,0-1-2,3.84,3.84,0,0,0-2-1.05,13.57,13.57,0,0,0-3.14-.29H327.78a13.39,13.39,0,0,0-3.09.29,3.85,3.85,0,0,0-1.95,1.05,4.24,4.24,0,0,0-1,2,13.58,13.58,0,0,0-.29,3V139a14,14,0,0,0,.29,3.09,4.14,4.14,0,0,0,1,2,4.35,4.35,0,0,0,1.95,1,12.69,12.69,0,0,0,3.09.32h14.87a12.85,12.85,0,0,0,3.14-.32,4.34,4.34,0,0,0,2-1,4.14,4.14,0,0,0,1-2,14,14,0,0,0,.29-3.09V133.5A13.58,13.58,0,0,0,348.77,130.47ZM262,138.75a3.54,3.54,0,0,0-2.53.72,2.88,2.88,0,0,0-.73,2.13v1.23a3.14,3.14,0,0,0,.73,2.3,3.54,3.54,0,0,0,2.53.73h19.64a1.67,1.67,0,0,0,1.31-.44,2.36,2.36,0,0,0,.38-1.55v-5.12Zm-26.9-10.32c-.87-.86-2.57-1.28-5.1-1.28H215.3a13.27,13.27,0,0,0-3.09.29,4.25,4.25,0,0,0-2,1,3.69,3.69,0,0,0-1,1.72,9.62,9.62,0,0,0-.29,2.51v5.59a9.6,9.6,0,0,0,.29,2.54,3.69,3.69,0,0,0,1,1.69,4.45,4.45,0,0,0,2,1,13.84,13.84,0,0,0,3.09.29h21.09V132.8C236.39,130.74,236,129.28,235.08,128.43Zm-152,2.18a4.15,4.15,0,0,0-1-2,4.34,4.34,0,0,0-2-1,12.85,12.85,0,0,0-3.14-.32H56v11.6a13.33,13.33,0,0,0,.29,3.09,3.88,3.88,0,0,0,1,2,4.07,4.07,0,0,0,2,1,12.21,12.21,0,0,0,3.09.32H77a12.37,12.37,0,0,0,3.14-.32,4.16,4.16,0,0,0,2-1,4,4,0,0,0,1-2,13.91,13.91,0,0,0,.29-3.09v-5.19A14.06,14.06,0,0,0,83.11,130.61Zm0,0a4.15,4.15,0,0,0-1-2,4.34,4.34,0,0,0-2-1,12.85,12.85,0,0,0-3.14-.32H56v11.6a13.33,13.33,0,0,0,.29,3.09,3.88,3.88,0,0,0,1,2,4.07,4.07,0,0,0,2,1,12.21,12.21,0,0,0,3.09.32H77a12.37,12.37,0,0,0,3.14-.32,4.16,4.16,0,0,0,2-1,4,4,0,0,0,1-2,13.91,13.91,0,0,0,.29-3.09v-5.19A14.06,14.06,0,0,0,83.11,130.61Zm152-2.18c-.87-.86-2.57-1.28-5.1-1.28H215.3a13.27,13.27,0,0,0-3.09.29,4.25,4.25,0,0,0-2,1,3.69,3.69,0,0,0-1,1.72,9.62,9.62,0,0,0-.29,2.51v5.59a9.6,9.6,0,0,0,.29,2.54,3.69,3.69,0,0,0,1,1.69,4.45,4.45,0,0,0,2,1,13.84,13.84,0,0,0,3.09.29h21.09V132.8C236.39,130.74,236,129.28,235.08,128.43ZM262,138.75a3.54,3.54,0,0,0-2.53.72,2.88,2.88,0,0,0-.73,2.13v1.23a3.14,3.14,0,0,0,.73,2.3,3.54,3.54,0,0,0,2.53.73h19.64a1.67,1.67,0,0,0,1.31-.44,2.36,2.36,0,0,0,.38-1.55v-5.12Zm86.79-8.28a4.24,4.24,0,0,0-1-2,3.84,3.84,0,0,0-2-1.05,13.57,13.57,0,0,0-3.14-.29H327.78a13.39,13.39,0,0,0-3.09.29,3.85,3.85,0,0,0-1.95,1.05,4.24,4.24,0,0,0-1,2,13.58,13.58,0,0,0-.29,3V139a14,14,0,0,0,.29,3.09,4.14,4.14,0,0,0,1,2,4.35,4.35,0,0,0,1.95,1,12.69,12.69,0,0,0,3.09.32h14.87a12.85,12.85,0,0,0,3.14-.32,4.34,4.34,0,0,0,2-1,4.14,4.14,0,0,0,1-2,14,14,0,0,0,.29-3.09V133.5A13.58,13.58,0,0,0,348.77,130.47Zm0,0a4.24,4.24,0,0,0-1-2,3.84,3.84,0,0,0-2-1.05,13.57,13.57,0,0,0-3.14-.29H327.78a13.39,13.39,0,0,0-3.09.29,3.85,3.85,0,0,0-1.95,1.05,4.24,4.24,0,0,0-1,2,13.58,13.58,0,0,0-.29,3V139a14,14,0,0,0,.29,3.09,4.14,4.14,0,0,0,1,2,4.35,4.35,0,0,0,1.95,1,12.69,12.69,0,0,0,3.09.32h14.87a12.85,12.85,0,0,0,3.14-.32,4.34,4.34,0,0,0,2-1,4.14,4.14,0,0,0,1-2,14,14,0,0,0,.29-3.09V133.5A13.58,13.58,0,0,0,348.77,130.47ZM262,138.75a3.54,3.54,0,0,0-2.53.72,2.88,2.88,0,0,0-.73,2.13v1.23a3.14,3.14,0,0,0,.73,2.3,3.54,3.54,0,0,0,2.53.73h19.64a1.67,1.67,0,0,0,1.31-.44,2.36,2.36,0,0,0,.38-1.55v-5.12Zm-26.9-10.32c-.87-.86-2.57-1.28-5.1-1.28H215.3a13.27,13.27,0,0,0-3.09.29,4.25,4.25,0,0,0-2,1,3.69,3.69,0,0,0-1,1.72,9.62,9.62,0,0,0-.29,2.51v5.59a9.6,9.6,0,0,0,.29,2.54,3.69,3.69,0,0,0,1,1.69,4.45,4.45,0,0,0,2,1,13.84,13.84,0,0,0,3.09.29h21.09V132.8C236.39,130.74,236,129.28,235.08,128.43Zm-152,2.18a4.15,4.15,0,0,0-1-2,4.34,4.34,0,0,0-2-1,12.85,12.85,0,0,0-3.14-.32H56v11.6a13.33,13.33,0,0,0,.29,3.09,3.88,3.88,0,0,0,1,2,4.07,4.07,0,0,0,2,1,12.21,12.21,0,0,0,3.09.32H77a12.37,12.37,0,0,0,3.14-.32,4.16,4.16,0,0,0,2-1,4,4,0,0,0,1-2,13.91,13.91,0,0,0,.29-3.09v-5.19A14.06,14.06,0,0,0,83.11,130.61Zm0,0a4.15,4.15,0,0,0-1-2,4.34,4.34,0,0,0-2-1,12.85,12.85,0,0,0-3.14-.32H56v11.6a13.33,13.33,0,0,0,.29,3.09,3.88,3.88,0,0,0,1,2,4.07,4.07,0,0,0,2,1,12.21,12.21,0,0,0,3.09.32H77a12.37,12.37,0,0,0,3.14-.32,4.16,4.16,0,0,0,2-1,4,4,0,0,0,1-2,13.91,13.91,0,0,0,.29-3.09v-5.19A14.06,14.06,0,0,0,83.11,130.61Zm152-2.18c-.87-.86-2.57-1.28-5.1-1.28H215.3a13.27,13.27,0,0,0-3.09.29,4.25,4.25,0,0,0-2,1,3.69,3.69,0,0,0-1,1.72,9.62,9.62,0,0,0-.29,2.51v5.59a9.6,9.6,0,0,0,.29,2.54,3.69,3.69,0,0,0,1,1.69,4.45,4.45,0,0,0,2,1,13.84,13.84,0,0,0,3.09.29h21.09V132.8C236.39,130.74,236,129.28,235.08,128.43ZM262,138.75a3.54,3.54,0,0,0-2.53.72,2.88,2.88,0,0,0-.73,2.13v1.23a3.14,3.14,0,0,0,.73,2.3,3.54,3.54,0,0,0,2.53.73h19.64a1.67,1.67,0,0,0,1.31-.44,2.36,2.36,0,0,0,.38-1.55v-5.12Zm86.79-8.28a4.24,4.24,0,0,0-1-2,3.84,3.84,0,0,0-2-1.05,13.57,13.57,0,0,0-3.14-.29H327.78a13.39,13.39,0,0,0-3.09.29,3.85,3.85,0,0,0-1.95,1.05,4.24,4.24,0,0,0-1,2,13.58,13.58,0,0,0-.29,3V139a14,14,0,0,0,.29,3.09,4.14,4.14,0,0,0,1,2,4.35,4.35,0,0,0,1.95,1,12.69,12.69,0,0,0,3.09.32h14.87a12.85,12.85,0,0,0,3.14-.32,4.34,4.34,0,0,0,2-1,4.14,4.14,0,0,0,1-2,14,14,0,0,0,.29-3.09V133.5A13.58,13.58,0,0,0,348.77,130.47Zm0,0a4.24,4.24,0,0,0-1-2,3.84,3.84,0,0,0-2-1.05,13.57,13.57,0,0,0-3.14-.29H327.78a13.39,13.39,0,0,0-3.09.29,3.85,3.85,0,0,0-1.95,1.05,4.24,4.24,0,0,0-1,2,13.58,13.58,0,0,0-.29,3V139a14,14,0,0,0,.29,3.09,4.14,4.14,0,0,0,1,2,4.35,4.35,0,0,0,1.95,1,12.69,12.69,0,0,0,3.09.32h14.87a12.85,12.85,0,0,0,3.14-.32,4.34,4.34,0,0,0,2-1,4.14,4.14,0,0,0,1-2,14,14,0,0,0,.29-3.09V133.5A13.58,13.58,0,0,0,348.77,130.47ZM262,138.75a3.54,3.54,0,0,0-2.53.72,2.88,2.88,0,0,0-.73,2.13v1.23a3.14,3.14,0,0,0,.73,2.3,3.54,3.54,0,0,0,2.53.73h19.64a1.67,1.67,0,0,0,1.31-.44,2.36,2.36,0,0,0,.38-1.55v-5.12Zm-26.9-10.32c-.87-.86-2.57-1.28-5.1-1.28H215.3a13.27,13.27,0,0,0-3.09.29,4.25,4.25,0,0,0-2,1,3.69,3.69,0,0,0-1,1.72,9.62,9.62,0,0,0-.29,2.51v5.59a9.6,9.6,0,0,0,.29,2.54,3.69,3.69,0,0,0,1,1.69,4.45,4.45,0,0,0,2,1,13.84,13.84,0,0,0,3.09.29h21.09V132.8C236.39,130.74,236,129.28,235.08,128.43Zm-152,2.18a4.15,4.15,0,0,0-1-2,4.34,4.34,0,0,0-2-1,12.85,12.85,0,0,0-3.14-.32H56v11.6a13.33,13.33,0,0,0,.29,3.09,3.88,3.88,0,0,0,1,2,4.07,4.07,0,0,0,2,1,12.21,12.21,0,0,0,3.09.32H77a12.37,12.37,0,0,0,3.14-.32,4.16,4.16,0,0,0,2-1,4,4,0,0,0,1-2,13.91,13.91,0,0,0,.29-3.09v-5.19A14.06,14.06,0,0,0,83.11,130.61Zm0,0a4.15,4.15,0,0,0-1-2,4.34,4.34,0,0,0-2-1,12.85,12.85,0,0,0-3.14-.32H56v11.6a13.33,13.33,0,0,0,.29,3.09,3.88,3.88,0,0,0,1,2,4.07,4.07,0,0,0,2,1,12.21,12.21,0,0,0,3.09.32H77a12.37,12.37,0,0,0,3.14-.32,4.16,4.16,0,0,0,2-1,4,4,0,0,0,1-2,13.91,13.91,0,0,0,.29-3.09v-5.19A14.06,14.06,0,0,0,83.11,130.61Zm152-2.18c-.87-.86-2.57-1.28-5.1-1.28H215.3a13.27,13.27,0,0,0-3.09.29,4.25,4.25,0,0,0-2,1,3.69,3.69,0,0,0-1,1.72,9.62,9.62,0,0,0-.29,2.51v5.59a9.6,9.6,0,0,0,.29,2.54,3.69,3.69,0,0,0,1,1.69,4.45,4.45,0,0,0,2,1,13.84,13.84,0,0,0,3.09.29h21.09V132.8C236.39,130.74,236,129.28,235.08,128.43ZM262,138.75a3.54,3.54,0,0,0-2.53.72,2.88,2.88,0,0,0-.73,2.13v1.23a3.14,3.14,0,0,0,.73,2.3,3.54,3.54,0,0,0,2.53.73h19.64a1.67,1.67,0,0,0,1.31-.44,2.36,2.36,0,0,0,.38-1.55v-5.12Zm86.79-8.28a4.24,4.24,0,0,0-1-2,3.84,3.84,0,0,0-2-1.05,13.57,13.57,0,0,0-3.14-.29H327.78a13.39,13.39,0,0,0-3.09.29,3.85,3.85,0,0,0-1.95,1.05,4.24,4.24,0,0,0-1,2,13.58,13.58,0,0,0-.29,3V139a14,14,0,0,0,.29,3.09,4.14,4.14,0,0,0,1,2,4.35,4.35,0,0,0,1.95,1,12.69,12.69,0,0,0,3.09.32h14.87a12.85,12.85,0,0,0,3.14-.32,4.34,4.34,0,0,0,2-1,4.14,4.14,0,0,0,1-2,14,14,0,0,0,.29-3.09V133.5A13.58,13.58,0,0,0,348.77,130.47Zm0,0a4.24,4.24,0,0,0-1-2,3.84,3.84,0,0,0-2-1.05,13.57,13.57,0,0,0-3.14-.29H327.78a13.39,13.39,0,0,0-3.09.29,3.85,3.85,0,0,0-1.95,1.05,4.24,4.24,0,0,0-1,2,13.58,13.58,0,0,0-.29,3V139a14,14,0,0,0,.29,3.09,4.14,4.14,0,0,0,1,2,4.35,4.35,0,0,0,1.95,1,12.69,12.69,0,0,0,3.09.32h14.87a12.85,12.85,0,0,0,3.14-.32,4.34,4.34,0,0,0,2-1,4.14,4.14,0,0,0,1-2,14,14,0,0,0,.29-3.09V133.5A13.58,13.58,0,0,0,348.77,130.47ZM262,138.75a3.54,3.54,0,0,0-2.53.72,2.88,2.88,0,0,0-.73,2.13v1.23a3.14,3.14,0,0,0,.73,2.3,3.54,3.54,0,0,0,2.53.73h19.64a1.67,1.67,0,0,0,1.31-.44,2.36,2.36,0,0,0,.38-1.55v-5.12Zm-26.9-10.32c-.87-.86-2.57-1.28-5.1-1.28H215.3a13.27,13.27,0,0,0-3.09.29,4.25,4.25,0,0,0-2,1,3.69,3.69,0,0,0-1,1.72,9.62,9.62,0,0,0-.29,2.51v5.59a9.6,9.6,0,0,0,.29,2.54,3.69,3.69,0,0,0,1,1.69,4.45,4.45,0,0,0,2,1,13.84,13.84,0,0,0,3.09.29h21.09V132.8C236.39,130.74,236,129.28,235.08,128.43Zm-152,2.18a4.15,4.15,0,0,0-1-2,4.34,4.34,0,0,0-2-1,12.85,12.85,0,0,0-3.14-.32H56v11.6a13.33,13.33,0,0,0,.29,3.09,3.88,3.88,0,0,0,1,2,4.07,4.07,0,0,0,2,1,12.21,12.21,0,0,0,3.09.32H77a12.37,12.37,0,0,0,3.14-.32,4.16,4.16,0,0,0,2-1,4,4,0,0,0,1-2,13.91,13.91,0,0,0,.29-3.09v-5.19A14.06,14.06,0,0,0,83.11,130.61Zm0,0a4.15,4.15,0,0,0-1-2,4.34,4.34,0,0,0-2-1,12.85,12.85,0,0,0-3.14-.32H56v11.6a13.33,13.33,0,0,0,.29,3.09,3.88,3.88,0,0,0,1,2,4.07,4.07,0,0,0,2,1,12.21,12.21,0,0,0,3.09.32H77a12.37,12.37,0,0,0,3.14-.32,4.16,4.16,0,0,0,2-1,4,4,0,0,0,1-2,13.91,13.91,0,0,0,.29-3.09v-5.19A14.06,14.06,0,0,0,83.11,130.61Zm152-2.18c-.87-.86-2.57-1.28-5.1-1.28H215.3a13.27,13.27,0,0,0-3.09.29,4.25,4.25,0,0,0-2,1,3.69,3.69,0,0,0-1,1.72,9.62,9.62,0,0,0-.29,2.51v5.59a9.6,9.6,0,0,0,.29,2.54,3.69,3.69,0,0,0,1,1.69,4.45,4.45,0,0,0,2,1,13.84,13.84,0,0,0,3.09.29h21.09V132.8C236.39,130.74,236,129.28,235.08,128.43ZM262,138.75a3.54,3.54,0,0,0-2.53.72,2.88,2.88,0,0,0-.73,2.13v1.23a3.14,3.14,0,0,0,.73,2.3,3.54,3.54,0,0,0,2.53.73h19.64a1.67,1.67,0,0,0,1.31-.44,2.36,2.36,0,0,0,.38-1.55v-5.12Zm86.79-8.28a4.24,4.24,0,0,0-1-2,3.84,3.84,0,0,0-2-1.05,13.57,13.57,0,0,0-3.14-.29H327.78a13.39,13.39,0,0,0-3.09.29,3.85,3.85,0,0,0-1.95,1.05,4.24,4.24,0,0,0-1,2,13.58,13.58,0,0,0-.29,3V139a14,14,0,0,0,.29,3.09,4.14,4.14,0,0,0,1,2,4.35,4.35,0,0,0,1.95,1,12.69,12.69,0,0,0,3.09.32h14.87a12.85,12.85,0,0,0,3.14-.32,4.34,4.34,0,0,0,2-1,4.14,4.14,0,0,0,1-2,14,14,0,0,0,.29-3.09V133.5A13.58,13.58,0,0,0,348.77,130.47Zm0,0a4.24,4.24,0,0,0-1-2,3.84,3.84,0,0,0-2-1.05,13.57,13.57,0,0,0-3.14-.29H327.78a13.39,13.39,0,0,0-3.09.29,3.85,3.85,0,0,0-1.95,1.05,4.24,4.24,0,0,0-1,2,13.58,13.58,0,0,0-.29,3V139a14,14,0,0,0,.29,3.09,4.14,4.14,0,0,0,1,2,4.35,4.35,0,0,0,1.95,1,12.69,12.69,0,0,0,3.09.32h14.87a12.85,12.85,0,0,0,3.14-.32,4.34,4.34,0,0,0,2-1,4.14,4.14,0,0,0,1-2,14,14,0,0,0,.29-3.09V133.5A13.58,13.58,0,0,0,348.77,130.47ZM262,138.75a3.54,3.54,0,0,0-2.53.72,2.88,2.88,0,0,0-.73,2.13v1.23a3.14,3.14,0,0,0,.73,2.3,3.54,3.54,0,0,0,2.53.73h19.64a1.67,1.67,0,0,0,1.31-.44,2.36,2.36,0,0,0,.38-1.55v-5.12Zm-26.9-10.32c-.87-.86-2.57-1.28-5.1-1.28H215.3a13.27,13.27,0,0,0-3.09.29,4.25,4.25,0,0,0-2,1,3.69,3.69,0,0,0-1,1.72,9.62,9.62,0,0,0-.29,2.51v5.59a9.6,9.6,0,0,0,.29,2.54,3.69,3.69,0,0,0,1,1.69,4.45,4.45,0,0,0,2,1,13.84,13.84,0,0,0,3.09.29h21.09V132.8C236.39,130.74,236,129.28,235.08,128.43Zm-152,2.18a4.15,4.15,0,0,0-1-2,4.34,4.34,0,0,0-2-1,12.85,12.85,0,0,0-3.14-.32H56v11.6a13.33,13.33,0,0,0,.29,3.09,3.88,3.88,0,0,0,1,2,4.07,4.07,0,0,0,2,1,12.21,12.21,0,0,0,3.09.32H77a12.37,12.37,0,0,0,3.14-.32,4.16,4.16,0,0,0,2-1,4,4,0,0,0,1-2,13.91,13.91,0,0,0,.29-3.09v-5.19A14.06,14.06,0,0,0,83.11,130.61Zm0,0a4.15,4.15,0,0,0-1-2,4.34,4.34,0,0,0-2-1,12.85,12.85,0,0,0-3.14-.32H56v11.6a13.33,13.33,0,0,0,.29,3.09,3.88,3.88,0,0,0,1,2,4.07,4.07,0,0,0,2,1,12.21,12.21,0,0,0,3.09.32H77a12.37,12.37,0,0,0,3.14-.32,4.16,4.16,0,0,0,2-1,4,4,0,0,0,1-2,13.91,13.91,0,0,0,.29-3.09v-5.19A14.06,14.06,0,0,0,83.11,130.61Zm152-2.18c-.87-.86-2.57-1.28-5.1-1.28H215.3a13.27,13.27,0,0,0-3.09.29,4.25,4.25,0,0,0-2,1,3.69,3.69,0,0,0-1,1.72,9.62,9.62,0,0,0-.29,2.51v5.59a9.6,9.6,0,0,0,.29,2.54,3.69,3.69,0,0,0,1,1.69,4.45,4.45,0,0,0,2,1,13.84,13.84,0,0,0,3.09.29h21.09V132.8C236.39,130.74,236,129.28,235.08,128.43ZM262,138.75a3.54,3.54,0,0,0-2.53.72,2.88,2.88,0,0,0-.73,2.13v1.23a3.14,3.14,0,0,0,.73,2.3,3.54,3.54,0,0,0,2.53.73h19.64a1.67,1.67,0,0,0,1.31-.44,2.36,2.36,0,0,0,.38-1.55v-5.12Zm0,0a3.54,3.54,0,0,0-2.53.72,2.88,2.88,0,0,0-.73,2.13v1.23a3.14,3.14,0,0,0,.73,2.3,3.54,3.54,0,0,0,2.53.73h19.64a1.67,1.67,0,0,0,1.31-.44,2.36,2.36,0,0,0,.38-1.55v-5.12Zm-26.9-10.32c-.87-.86-2.57-1.28-5.1-1.28H215.3a13.27,13.27,0,0,0-3.09.29,4.25,4.25,0,0,0-2,1,3.69,3.69,0,0,0-1,1.72,9.62,9.62,0,0,0-.29,2.51v5.59a9.6,9.6,0,0,0,.29,2.54,3.69,3.69,0,0,0,1,1.69,4.45,4.45,0,0,0,2,1,13.84,13.84,0,0,0,3.09.29h21.09V132.8C236.39,130.74,236,129.28,235.08,128.43Zm-152,2.18a4.15,4.15,0,0,0-1-2,4.34,4.34,0,0,0-2-1,12.85,12.85,0,0,0-3.14-.32H56v11.6a13.33,13.33,0,0,0,.29,3.09,3.88,3.88,0,0,0,1,2,4.07,4.07,0,0,0,2,1,12.21,12.21,0,0,0,3.09.32H77a12.37,12.37,0,0,0,3.14-.32,4.16,4.16,0,0,0,2-1,4,4,0,0,0,1-2,13.91,13.91,0,0,0,.29-3.09v-5.19A14.06,14.06,0,0,0,83.11,130.61Zm0,0a4.15,4.15,0,0,0-1-2,4.34,4.34,0,0,0-2-1,12.85,12.85,0,0,0-3.14-.32H56v11.6a13.33,13.33,0,0,0,.29,3.09,3.88,3.88,0,0,0,1,2,4.07,4.07,0,0,0,2,1,12.21,12.21,0,0,0,3.09.32H77a12.37,12.37,0,0,0,3.14-.32,4.16,4.16,0,0,0,2-1,4,4,0,0,0,1-2,13.91,13.91,0,0,0,.29-3.09v-5.19A14.06,14.06,0,0,0,83.11,130.61Zm152-2.18c-.87-.86-2.57-1.28-5.1-1.28H215.3a13.27,13.27,0,0,0-3.09.29,4.25,4.25,0,0,0-2,1,3.69,3.69,0,0,0-1,1.72,9.62,9.62,0,0,0-.29,2.51v5.59a9.6,9.6,0,0,0,.29,2.54,3.69,3.69,0,0,0,1,1.69,4.45,4.45,0,0,0,2,1,13.84,13.84,0,0,0,3.09.29h21.09V132.8C236.39,130.74,236,129.28,235.08,128.43Zm0,0c-.87-.86-2.57-1.28-5.1-1.28H215.3a13.27,13.27,0,0,0-3.09.29,4.25,4.25,0,0,0-2,1,3.69,3.69,0,0,0-1,1.72,9.62,9.62,0,0,0-.29,2.51v5.59a9.6,9.6,0,0,0,.29,2.54,3.69,3.69,0,0,0,1,1.69,4.45,4.45,0,0,0,2,1,13.84,13.84,0,0,0,3.09.29h21.09V132.8C236.39,130.74,236,129.28,235.08,128.43Zm-152,2.18a4.15,4.15,0,0,0-1-2,4.34,4.34,0,0,0-2-1,12.85,12.85,0,0,0-3.14-.32H56v11.6a13.33,13.33,0,0,0,.29,3.09,3.88,3.88,0,0,0,1,2,4.07,4.07,0,0,0,2,1,12.21,12.21,0,0,0,3.09.32H77a12.37,12.37,0,0,0,3.14-.32,4.16,4.16,0,0,0,2-1,4,4,0,0,0,1-2,13.91,13.91,0,0,0,.29-3.09v-5.19A14.06,14.06,0,0,0,83.11,130.61Zm0,0a4.15,4.15,0,0,0-1-2,4.34,4.34,0,0,0-2-1,12.85,12.85,0,0,0-3.14-.32H56v11.6a13.33,13.33,0,0,0,.29,3.09,3.88,3.88,0,0,0,1,2,4.07,4.07,0,0,0,2,1,12.21,12.21,0,0,0,3.09.32H77a12.37,12.37,0,0,0,3.14-.32,4.16,4.16,0,0,0,2-1,4,4,0,0,0,1-2,13.91,13.91,0,0,0,.29-3.09v-5.19A14.06,14.06,0,0,0,83.11,130.61Zm0,0a4.15,4.15,0,0,0-1-2,4.34,4.34,0,0,0-2-1,12.85,12.85,0,0,0-3.14-.32H56v11.6a13.33,13.33,0,0,0,.29,3.09,3.88,3.88,0,0,0,1,2,4.07,4.07,0,0,0,2,1,12.21,12.21,0,0,0,3.09.32H77a12.37,12.37,0,0,0,3.14-.32,4.16,4.16,0,0,0,2-1,4,4,0,0,0,1-2,13.91,13.91,0,0,0,.29-3.09v-5.19A14.06,14.06,0,0,0,83.11,130.61Z"/><polyline class="cls-2" points="623.7 120.4 621.19 118.77 647.53 119.21"/><polyline class="cls-2" points="643.07 145.02 628.02 163.8 625.09 167.45 632.62 163.8 647.83 156.43"/><polyline class="cls-2" points="629.17 123.95 649.43 137.09 645.65 141.8"/><polyline class="cls-2" points="689.99 145.02 690.22 147.49 692.05 167.45 687.03 163.8 665.28 147.98 650.16 155.3"/><polygon class="cls-2" points="685.75 88.69 688 121.03 731.41 123.66 689.41 138.65 692.06 167.45 665.29 147.99 625.09 167.45 649.43 137.1 621.19 118.77 663 119.47 685.75 88.69"/></g></g></g></svg>